<svg width="337" height="356" viewBox="0 0 337 356" fill="none" xmlns="http://www.w3.org/2000/svg">
<g filter="url(#filter0_d)">
<path d="M245.973 262.542L120.489 271.547L43.0703 172.382L91.0269 64.4574L216.511 55.453L293.93 154.618L245.973 262.542Z" stroke="black" stroke-width="4"/>
</g>
<g filter="url(#filter1_d)">
<path d="M279.431 213.138L169.192 273.757L57.4175 216.018L55.8856 97.9288L166.125 37.3099L277.9 95.0486L279.431 213.138Z" stroke="black" stroke-width="4"/>
</g>
<path d="M111.507 137.234V134.234H108.507V137.234H111.507ZM121.761 137.234H124.761V134.234H121.761V137.234ZM119.642 180.096L117.046 178.592L117.041 178.599L119.642 180.096ZM92.7764 183.685L90.7515 185.898L90.7609 185.907L92.7764 183.685ZM88.3672 172.303V169.303H85.3672V172.303H88.3672ZM98.6895 172.303H101.689V169.303H98.6895V172.303ZM109.764 177.43L107.494 175.468L109.764 177.43ZM111.507 140.234H121.761V134.234H111.507V140.234ZM118.761 137.234V171.688H124.761V137.234H118.761ZM118.761 171.688C118.761 174.394 118.162 176.665 117.046 178.592L122.237 181.6C123.947 178.65 124.761 175.316 124.761 171.688H118.761ZM117.041 178.599C115.947 180.5 114.408 181.971 112.349 183.037L115.108 188.365C118.154 186.788 120.556 184.522 122.242 181.592L117.041 178.599ZM112.349 183.037C110.271 184.113 107.871 184.684 105.081 184.684V190.684C108.717 190.684 112.081 189.933 115.108 188.365L112.349 183.037ZM105.081 184.684C100.314 184.684 97.0197 183.483 94.7918 181.462L90.7609 185.907C94.412 189.218 99.3204 190.684 105.081 190.684V184.684ZM94.8012 181.471C92.6218 179.477 91.3672 176.568 91.3672 172.303H85.3672C85.3672 177.835 87.052 182.514 90.7515 185.898L94.8012 181.471ZM88.3672 175.303H98.6895V169.303H88.3672V175.303ZM95.6895 172.303C95.6895 175.073 96.258 177.739 97.978 179.688L102.477 175.718C102.146 175.343 101.689 174.409 101.689 172.303H95.6895ZM97.978 179.688C99.7822 181.733 102.387 182.446 105.081 182.446V176.446C103.354 176.446 102.724 175.998 102.477 175.718L97.978 179.688ZM105.081 182.446C107.811 182.446 110.239 181.468 112.033 179.392L107.494 175.468C106.965 176.08 106.27 176.446 105.081 176.446V182.446ZM112.033 179.392C113.824 177.32 114.507 174.607 114.507 171.688H108.507C108.507 173.736 108.027 174.851 107.494 175.468L112.033 179.392ZM114.507 171.688V137.234H108.507V171.688H114.507ZM158.23 169.466V166.466H155.23V169.466H158.23ZM158.23 187V190H161.23V187H158.23ZM147.977 187H144.977V190H147.977V187ZM147.977 137.234V134.234H144.977V137.234H147.977ZM177.234 139.285L175.928 141.986L175.936 141.99L177.234 139.285ZM183.797 145.13L181.228 146.68L181.235 146.69L183.797 145.13ZM181.062 165.262L182.995 167.556L182.997 167.555L181.062 165.262ZM158.23 161.16H155.23V164.16H158.23V161.16ZM173.577 159.246L171.584 157.004L171.575 157.012L171.566 157.02L173.577 159.246ZM167.63 145.54L167.684 142.541L167.657 142.54H167.63V145.54ZM158.23 145.54V142.54H155.23V145.54H158.23ZM155.23 169.466V187H161.23V169.466H155.23ZM158.23 184H147.977V190H158.23V184ZM150.977 187V137.234H144.977V187H150.977ZM147.977 140.234H167.391V134.234H147.977V140.234ZM167.391 140.234C170.76 140.234 173.58 140.85 175.928 141.986L178.541 136.585C175.238 134.986 171.495 134.234 167.391 134.234V140.234ZM175.936 141.99C178.296 143.122 180.025 144.686 181.228 146.68L186.365 143.58C184.515 140.515 181.869 138.182 178.533 136.581L175.936 141.99ZM181.235 146.69C182.448 148.683 183.087 150.993 183.087 153.709H189.087C189.087 149.999 188.199 146.59 186.359 143.569L181.235 146.69ZM183.087 153.709C183.087 157.814 181.721 160.782 179.128 162.969L182.997 167.555C187.104 164.091 189.087 159.357 189.087 153.709H183.087ZM179.13 162.967C176.51 165.174 172.667 166.466 167.22 166.466V172.466C173.576 172.466 178.962 170.954 182.995 167.556L179.13 162.967ZM167.22 166.466H158.23V172.466H167.22V166.466ZM158.23 164.16H167.391V158.16H158.23V164.16ZM167.391 164.16C170.532 164.16 173.429 163.423 175.588 161.472L171.566 157.02C170.9 157.622 169.672 158.16 167.391 158.16V164.16ZM175.57 161.488C177.792 159.513 178.73 156.787 178.73 153.777H172.73C172.73 155.507 172.233 156.427 171.584 157.004L175.57 161.488ZM178.73 153.777C178.73 150.71 177.806 147.95 175.747 145.793L171.407 149.936C172.219 150.786 172.73 151.968 172.73 153.777H178.73ZM175.747 145.793C173.642 143.588 170.829 142.597 167.684 142.541L167.576 148.54C169.489 148.574 170.641 149.133 171.407 149.936L175.747 145.793ZM167.63 142.54H158.23V148.54H167.63V142.54ZM155.23 145.54V161.16H161.23V145.54H155.23ZM234.349 169.5L232.523 171.881L232.536 171.89L232.549 171.9L234.349 169.5ZM226.966 166.219L226.034 169.07L226.042 169.073L226.05 169.076L226.966 166.219ZM218.523 162.801L217.097 165.44L217.101 165.442L218.523 162.801ZM212.303 143.284L209.869 141.531L209.865 141.535L212.303 143.284ZM218.831 138.328L217.679 135.558L217.671 135.562L218.831 138.328ZM237.903 138.499L236.633 141.217L236.643 141.221L236.652 141.226L237.903 138.499ZM244.363 143.934L241.849 145.569L241.854 145.578L241.86 145.586L244.363 143.934ZM246.688 151.932V154.932H249.688V151.932H246.688ZM236.434 151.932H233.434V154.932H236.434V151.932ZM234.28 146.634L232.287 148.876L232.297 148.885L232.307 148.894L234.28 146.634ZM222.386 146.326L224.192 148.721L224.204 148.712L224.217 148.703L222.386 146.326ZM222.728 154.563L221.047 157.049L221.055 157.054L221.063 157.06L222.728 154.563ZM229.939 157.64L229.072 160.511L229.075 160.513L229.939 157.64ZM241.8 184.026L243.597 186.428L243.608 186.42L241.8 184.026ZM218.182 185.599L216.952 188.335L216.96 188.339L216.969 188.343L218.182 185.599ZM210.97 179.822L208.481 181.497L208.486 181.505L208.492 181.513L210.97 179.822ZM208.509 171.346V168.346H205.509V171.346H208.509ZM218.797 171.346H221.797V168.346H218.797V171.346ZM234.349 178.113L236.096 180.552L236.11 180.542L236.123 180.532L234.349 178.113ZM239.399 173.943C239.399 171.206 238.379 168.773 236.149 167.1L232.549 171.9C233.052 172.278 233.399 172.807 233.399 173.943H239.399ZM236.174 167.119C234.365 165.733 231.472 164.513 227.881 163.362L226.05 169.076C229.569 170.203 231.598 171.171 232.523 171.881L236.174 167.119ZM227.898 163.367C224.426 162.232 221.799 161.157 219.946 160.159L217.101 165.442C219.395 166.677 222.396 167.881 226.034 169.07L227.898 163.367ZM219.95 160.161C214.991 157.482 213.047 154.25 213.047 150.462H207.047C207.047 157.019 210.754 162.013 217.097 165.44L219.95 160.161ZM213.047 150.462C213.047 148.372 213.618 146.597 214.74 145.033L209.865 141.535C207.979 144.164 207.047 147.174 207.047 150.462H213.047ZM214.737 145.038C215.888 143.44 217.586 142.103 219.991 141.095L217.671 135.562C214.425 136.923 211.771 138.89 209.869 141.531L214.737 145.038ZM219.983 141.098C222.417 140.085 225.208 139.551 228.401 139.551V133.551C224.531 133.551 220.941 134.201 217.679 135.558L219.983 141.098ZM228.401 139.551C231.586 139.551 234.309 140.131 236.633 141.217L239.173 135.781C235.937 134.269 232.326 133.551 228.401 133.551V139.551ZM236.652 141.226C238.966 142.288 240.66 143.742 241.849 145.569L246.878 142.298C245.013 139.431 242.401 137.263 239.155 135.773L236.652 141.226ZM241.86 145.586C243.065 147.412 243.688 149.496 243.688 151.932H249.688C249.688 148.397 248.76 145.149 246.867 142.281L241.86 145.586ZM246.688 148.932H236.434V154.932H246.688V148.932ZM239.434 151.932C239.434 148.973 238.469 146.309 236.253 144.374L232.307 148.894C232.962 149.466 233.434 150.333 233.434 151.932H239.434ZM236.273 144.392C234.12 142.478 231.301 141.72 228.23 141.72V147.72C230.355 147.72 231.569 148.238 232.287 148.876L236.273 144.392ZM228.23 141.72C225.337 141.72 222.653 142.333 220.555 143.95L224.217 148.703C224.899 148.177 226.111 147.72 228.23 147.72V141.72ZM220.579 143.931C218.442 145.542 217.301 147.817 217.301 150.496H223.301C223.301 149.712 223.549 149.206 224.192 148.721L220.579 143.931ZM217.301 150.496C217.301 153.325 218.8 155.529 221.047 157.049L224.408 152.078C223.42 151.41 223.301 150.903 223.301 150.496H217.301ZM221.063 157.06C223.06 158.391 225.786 159.518 229.072 160.511L230.807 154.768C227.759 153.847 225.676 152.924 224.392 152.067L221.063 157.06ZM229.075 160.513C234.707 162.207 238.428 164.205 240.595 166.317L244.782 162.019C241.617 158.936 236.838 156.582 230.804 154.767L229.075 160.513ZM240.595 166.317C242.655 168.324 243.688 170.774 243.688 173.875H249.688C249.688 169.229 248.054 165.207 244.782 162.019L240.595 166.317ZM243.688 173.875C243.688 177.301 242.453 179.774 239.992 181.632L243.608 186.42C247.664 183.357 249.688 179.062 249.688 173.875H243.688ZM240.002 181.624C237.419 183.557 233.734 184.684 228.641 184.684V190.684C234.576 190.684 239.664 189.372 243.597 186.428L240.002 181.624ZM228.641 184.684C225.183 184.684 222.116 184.058 219.395 182.855L216.969 188.343C220.537 189.92 224.442 190.684 228.641 190.684V184.684ZM219.411 182.862C216.685 181.637 214.75 180.04 213.448 178.132L208.492 181.513C210.516 184.48 213.389 186.734 216.952 188.335L219.411 182.862ZM213.459 178.147C212.182 176.25 211.509 174.02 211.509 171.346H205.509C205.509 175.097 206.476 178.518 208.481 181.497L213.459 178.147ZM208.509 174.346H218.797V168.346H208.509V174.346ZM215.797 171.346C215.797 174.708 216.827 177.728 219.333 179.824C221.736 181.835 225.014 182.583 228.641 182.583V176.583C225.704 176.583 224.061 175.958 223.183 175.223C222.407 174.574 221.797 173.475 221.797 171.346H215.797ZM228.641 182.583C231.436 182.583 234.037 182.028 236.096 180.552L232.601 175.675C231.926 176.159 230.722 176.583 228.641 176.583V182.583ZM236.123 180.532C238.303 178.933 239.399 176.622 239.399 173.943H233.399C233.399 174.819 233.128 175.288 232.575 175.694L236.123 180.532Z" fill="black"/>
<path d="M89.7734 343.695C89.0182 343.695 88.276 343.539 87.5469 343.227C86.8177 342.94 86.1667 342.523 85.5938 341.977C85.0208 341.43 84.5651 340.753 84.2266 339.945C83.888 339.164 83.7448 338.266 83.7969 337.25C83.875 335.479 84.2266 333.839 84.8516 332.328C85.4766 330.818 86.2057 329.516 87.0391 328.422C87.8724 327.328 88.7188 326.482 89.5781 325.883C90.4375 325.258 91.1536 324.945 91.7266 324.945C92.0911 324.945 92.4167 325.076 92.7031 325.336C93.0156 325.57 93.25 325.883 93.4062 326.273C93.5885 326.638 93.6927 327.055 93.7188 327.523C93.7708 327.966 93.7188 328.396 93.5625 328.812C93.3021 328.63 92.8203 328.695 92.1172 329.008C91.4141 329.32 90.6849 329.854 89.9297 330.609C89.1745 331.339 88.4974 332.25 87.8984 333.344C87.2995 334.438 86.9609 335.661 86.8828 337.016C86.8307 337.901 86.8698 338.656 87 339.281C87.1562 339.906 87.3646 340.414 87.625 340.805C87.9115 341.195 88.224 341.482 88.5625 341.664C88.9271 341.846 89.3047 341.938 89.6953 341.938C90.6328 341.938 91.4922 341.586 92.2734 340.883C93.0547 340.18 93.7708 339.19 94.4219 337.914C95.0729 336.664 95.6849 335.167 96.2578 333.422C96.8307 331.651 97.3776 329.698 97.8984 327.562C98.0547 326.911 98.25 326.104 98.4844 325.141C98.7448 324.177 99.0182 323.135 99.3047 322.016C99.5911 320.87 99.8906 319.698 100.203 318.5C100.542 317.276 100.854 316.117 101.141 315.023C101.427 313.904 101.701 312.875 101.961 311.938C102.221 310.974 102.43 310.193 102.586 309.594C101.727 309.594 100.867 309.646 100.008 309.75C99.2786 309.828 98.5234 309.945 97.7422 310.102C96.9609 310.232 96.3099 310.414 95.7891 310.648C95.737 310.622 95.6979 310.557 95.6719 310.453C95.6458 310.323 95.6198 310.193 95.5938 310.062C95.5677 309.906 95.5417 309.737 95.5156 309.555C95.4896 309.346 95.4896 309.138 95.5156 308.93C95.5417 308.747 95.5677 308.552 95.5938 308.344C95.6198 308.109 95.6719 307.875 95.75 307.641C96.4271 307.432 97.2083 307.276 98.0938 307.172C99.0052 307.042 99.8516 306.951 100.633 306.898C101.544 306.82 102.482 306.781 103.445 306.781C104.148 306.781 104.878 306.82 105.633 306.898C106.284 306.951 107.013 307.029 107.82 307.133C108.628 307.237 109.435 307.393 110.242 307.602C110.424 307.784 110.542 307.992 110.594 308.227C110.62 308.331 110.633 308.448 110.633 308.578C110.633 308.786 110.594 308.982 110.516 309.164C110.464 309.32 110.372 309.49 110.242 309.672C110.138 309.828 109.995 309.958 109.812 310.062C109.526 309.984 109.161 309.932 108.719 309.906C108.302 309.854 107.885 309.802 107.469 309.75C107 309.698 106.505 309.659 105.984 309.633L101.844 328.07C101.74 328.513 101.557 329.216 101.297 330.18C101.036 331.117 100.672 332.172 100.203 333.344C99.7604 334.49 99.2135 335.674 98.5625 336.898C97.9375 338.122 97.1953 339.229 96.3359 340.219C95.4766 341.234 94.5 342.068 93.4062 342.719C92.3125 343.37 91.1016 343.695 89.7734 343.695ZM123.953 306.586C124.865 306.586 125.607 306.846 126.18 307.367C126.779 307.862 127.039 308.773 126.961 310.102C126.935 310.544 126.831 311.378 126.648 312.602C126.466 313.799 126.245 315.219 125.984 316.859C125.724 318.5 125.424 320.271 125.086 322.172C124.773 324.047 124.474 325.883 124.188 327.68H125.008C125.268 327.68 125.555 327.667 125.867 327.641C126.18 327.615 126.505 327.576 126.844 327.523C126.714 327.836 126.57 328.135 126.414 328.422C126.258 328.682 126.102 328.917 125.945 329.125C125.763 329.359 125.581 329.568 125.398 329.75C125.164 330.036 124.891 330.297 124.578 330.531C124.266 330.74 123.966 330.909 123.68 331.039C123.497 332.315 123.341 333.461 123.211 334.477C123.107 335.466 123.042 336.286 123.016 336.938C122.964 337.927 122.99 338.852 123.094 339.711C123.172 340.466 123.328 341.234 123.562 342.016C123.797 342.797 124.174 343.422 124.695 343.891L120.164 345.375C119.852 344.932 119.617 344.333 119.461 343.578C119.331 342.849 119.24 342.12 119.188 341.391C119.109 340.531 119.096 339.646 119.148 338.734C119.201 337.823 119.344 336.638 119.578 335.18C119.812 333.695 120.073 332.081 120.359 330.336C119.839 330.18 119.266 330.049 118.641 329.945C118.042 329.841 117.365 329.789 116.609 329.789C115.932 329.789 115.216 329.815 114.461 329.867C113.732 329.919 113.003 329.984 112.273 330.062C111.961 331.208 111.648 332.419 111.336 333.695C110.997 335.076 110.685 336.247 110.398 337.211C110.138 338.201 109.878 339.021 109.617 339.672C109.383 340.323 109.135 340.844 108.875 341.234C108.641 341.625 108.38 341.911 108.094 342.094C107.781 342.25 107.391 342.393 106.922 342.523C106.479 342.654 105.919 342.784 105.242 342.914C104.565 343.044 103.693 343.148 102.625 343.227C103.016 342.758 103.354 342.328 103.641 341.938C103.927 341.547 104.214 341.065 104.5 340.492C104.786 339.919 105.112 339.177 105.477 338.266C105.815 337.38 106.258 336.208 106.805 334.75C107.039 334.151 107.273 333.5 107.508 332.797C107.768 332.068 108.042 331.326 108.328 330.57C107.391 330.701 106.596 330.818 105.945 330.922C105.294 331.026 104.904 331.104 104.773 331.156C104.565 331.182 104.396 331.182 104.266 331.156C103.927 331.104 103.745 330.935 103.719 330.648C103.745 330.284 103.875 330.036 104.109 329.906C104.318 329.776 104.643 329.62 105.086 329.438C105.294 329.333 105.776 329.151 106.531 328.891C107.26 328.604 108.159 328.305 109.227 327.992C109.617 326.898 109.995 325.818 110.359 324.75C110.75 323.656 111.128 322.615 111.492 321.625C111.857 320.635 112.208 319.711 112.547 318.852C112.885 317.966 113.198 317.211 113.484 316.586C113.927 315.622 114.487 314.568 115.164 313.422C115.867 312.25 116.661 311.156 117.547 310.141C118.458 309.125 119.448 308.279 120.516 307.602C121.609 306.924 122.755 306.586 123.953 306.586ZM123.523 314.711C123.81 313.539 124.005 312.576 124.109 311.82C124.214 311.065 124.253 310.479 124.227 310.062C124.201 309.62 124.109 309.32 123.953 309.164C123.823 308.982 123.654 308.891 123.445 308.891C123.107 308.891 122.69 309.021 122.195 309.281C121.701 309.542 121.18 309.919 120.633 310.414C120.086 310.883 119.539 311.482 118.992 312.211C118.471 312.914 118.003 313.721 117.586 314.633C116.987 315.987 116.31 317.654 115.555 319.633C114.799 321.586 113.979 324.086 113.094 327.133C113.615 327.055 114.122 326.99 114.617 326.938C115.138 326.885 115.646 326.859 116.141 326.859C117.026 326.859 117.872 326.898 118.68 326.977C119.487 327.029 120.229 327.094 120.906 327.172C121.141 325.922 121.375 324.698 121.609 323.5C121.87 322.276 122.117 321.117 122.352 320.023C122.586 318.93 122.794 317.927 122.977 317.016C123.185 316.104 123.367 315.336 123.523 314.711ZM137.312 343.617C136.036 343.617 134.891 343.279 133.875 342.602C132.859 341.951 132 341.052 131.297 339.906C130.594 338.76 130.073 337.432 129.734 335.922C129.422 334.411 129.305 332.81 129.383 331.117C129.487 329.32 129.76 327.471 130.203 325.57C130.646 323.643 131.245 321.768 132 319.945C132.755 318.122 133.628 316.391 134.617 314.75C135.633 313.109 136.74 311.677 137.938 310.453C139.161 309.229 140.464 308.266 141.844 307.562C143.224 306.833 144.669 306.469 146.18 306.469C147.169 306.469 148.003 306.716 148.68 307.211C149.357 307.706 149.878 308.357 150.242 309.164C150.633 309.945 150.88 310.831 150.984 311.82C151.089 312.81 151.076 313.799 150.945 314.789C150.841 315.753 150.62 316.69 150.281 317.602C149.969 318.487 149.578 319.216 149.109 319.789C148.51 320.544 147.964 320.948 147.469 321C147 321.026 146.544 320.883 146.102 320.57C145.919 320.414 145.737 320.232 145.555 320.023C145.372 319.841 145.177 319.62 144.969 319.359C144.76 319.073 144.539 318.721 144.305 318.305C144.799 318.122 145.255 317.823 145.672 317.406C146.089 316.964 146.44 316.469 146.727 315.922C147.039 315.375 147.273 314.802 147.43 314.203C147.612 313.578 147.716 312.966 147.742 312.367C147.768 311.898 147.755 311.443 147.703 311C147.651 310.531 147.547 310.128 147.391 309.789C147.234 309.424 147.013 309.138 146.727 308.93C146.466 308.695 146.128 308.578 145.711 308.578C144.669 308.578 143.654 308.982 142.664 309.789C141.674 310.57 140.737 311.625 139.852 312.953C138.992 314.255 138.185 315.753 137.43 317.445C136.701 319.138 136.062 320.883 135.516 322.68C134.969 324.477 134.526 326.247 134.188 327.992C133.849 329.737 133.641 331.326 133.562 332.758C133.458 334.555 133.523 336.013 133.758 337.133C133.992 338.253 134.305 339.125 134.695 339.75C135.112 340.401 135.555 340.831 136.023 341.039C136.492 341.273 136.922 341.391 137.312 341.391C138.042 341.391 138.862 341.052 139.773 340.375C140.685 339.698 141.557 338.773 142.391 337.602C143.224 336.456 143.966 335.128 144.617 333.617C145.294 332.107 145.776 330.518 146.062 328.852C145.411 328.852 144.747 328.865 144.07 328.891C143.419 328.891 142.794 328.904 142.195 328.93C141.596 328.956 141.062 328.995 140.594 329.047C140.125 329.073 139.76 329.112 139.5 329.164C139.318 329.086 139.188 328.995 139.109 328.891C139.057 328.786 139.005 328.669 138.953 328.539C138.901 328.435 138.875 328.305 138.875 328.148C138.875 327.992 138.901 327.849 138.953 327.719C139.005 327.589 139.07 327.458 139.148 327.328C139.227 327.172 139.331 327.016 139.461 326.859C140.294 326.703 141.115 326.573 141.922 326.469C142.729 326.365 143.562 326.286 144.422 326.234C145.307 326.156 146.245 326.104 147.234 326.078C148.25 326.026 149.383 325.987 150.633 325.961C151.154 325.935 151.466 326 151.57 326.156C151.701 326.312 151.661 326.703 151.453 327.328C151.297 327.823 151.089 328.227 150.828 328.539C150.594 328.852 150.19 328.982 149.617 328.93C149.435 328.93 149.292 328.917 149.188 328.891C148.953 330.427 148.458 332.055 147.703 333.773C146.948 335.492 146.023 337.081 144.93 338.539C143.836 339.997 142.625 341.208 141.297 342.172C139.995 343.135 138.667 343.617 137.312 343.617ZM170.164 306.586C171.076 306.586 171.818 306.846 172.391 307.367C172.99 307.862 173.25 308.773 173.172 310.102C173.146 310.544 173.042 311.378 172.859 312.602C172.677 313.799 172.456 315.219 172.195 316.859C171.935 318.5 171.635 320.271 171.297 322.172C170.984 324.047 170.685 325.883 170.398 327.68H171.219C171.479 327.68 171.766 327.667 172.078 327.641C172.391 327.615 172.716 327.576 173.055 327.523C172.924 327.836 172.781 328.135 172.625 328.422C172.469 328.682 172.312 328.917 172.156 329.125C171.974 329.359 171.792 329.568 171.609 329.75C171.375 330.036 171.102 330.297 170.789 330.531C170.477 330.74 170.177 330.909 169.891 331.039C169.708 332.315 169.552 333.461 169.422 334.477C169.318 335.466 169.253 336.286 169.227 336.938C169.174 337.927 169.201 338.852 169.305 339.711C169.383 340.466 169.539 341.234 169.773 342.016C170.008 342.797 170.385 343.422 170.906 343.891L166.375 345.375C166.062 344.932 165.828 344.333 165.672 343.578C165.542 342.849 165.451 342.12 165.398 341.391C165.32 340.531 165.307 339.646 165.359 338.734C165.411 337.823 165.555 336.638 165.789 335.18C166.023 333.695 166.284 332.081 166.57 330.336C166.049 330.18 165.477 330.049 164.852 329.945C164.253 329.841 163.576 329.789 162.82 329.789C162.143 329.789 161.427 329.815 160.672 329.867C159.943 329.919 159.214 329.984 158.484 330.062C158.172 331.208 157.859 332.419 157.547 333.695C157.208 335.076 156.896 336.247 156.609 337.211C156.349 338.201 156.089 339.021 155.828 339.672C155.594 340.323 155.346 340.844 155.086 341.234C154.852 341.625 154.591 341.911 154.305 342.094C153.992 342.25 153.602 342.393 153.133 342.523C152.69 342.654 152.13 342.784 151.453 342.914C150.776 343.044 149.904 343.148 148.836 343.227C149.227 342.758 149.565 342.328 149.852 341.938C150.138 341.547 150.424 341.065 150.711 340.492C150.997 339.919 151.323 339.177 151.688 338.266C152.026 337.38 152.469 336.208 153.016 334.75C153.25 334.151 153.484 333.5 153.719 332.797C153.979 332.068 154.253 331.326 154.539 330.57C153.602 330.701 152.807 330.818 152.156 330.922C151.505 331.026 151.115 331.104 150.984 331.156C150.776 331.182 150.607 331.182 150.477 331.156C150.138 331.104 149.956 330.935 149.93 330.648C149.956 330.284 150.086 330.036 150.32 329.906C150.529 329.776 150.854 329.62 151.297 329.438C151.505 329.333 151.987 329.151 152.742 328.891C153.471 328.604 154.37 328.305 155.438 327.992C155.828 326.898 156.206 325.818 156.57 324.75C156.961 323.656 157.339 322.615 157.703 321.625C158.068 320.635 158.419 319.711 158.758 318.852C159.096 317.966 159.409 317.211 159.695 316.586C160.138 315.622 160.698 314.568 161.375 313.422C162.078 312.25 162.872 311.156 163.758 310.141C164.669 309.125 165.659 308.279 166.727 307.602C167.82 306.924 168.966 306.586 170.164 306.586ZM169.734 314.711C170.021 313.539 170.216 312.576 170.32 311.82C170.424 311.065 170.464 310.479 170.438 310.062C170.411 309.62 170.32 309.32 170.164 309.164C170.034 308.982 169.865 308.891 169.656 308.891C169.318 308.891 168.901 309.021 168.406 309.281C167.911 309.542 167.391 309.919 166.844 310.414C166.297 310.883 165.75 311.482 165.203 312.211C164.682 312.914 164.214 313.721 163.797 314.633C163.198 315.987 162.521 317.654 161.766 319.633C161.01 321.586 160.19 324.086 159.305 327.133C159.826 327.055 160.333 326.99 160.828 326.938C161.349 326.885 161.857 326.859 162.352 326.859C163.237 326.859 164.083 326.898 164.891 326.977C165.698 327.029 166.44 327.094 167.117 327.172C167.352 325.922 167.586 324.698 167.82 323.5C168.081 322.276 168.328 321.117 168.562 320.023C168.797 318.93 169.005 317.927 169.188 317.016C169.396 316.104 169.578 315.336 169.734 314.711ZM181.453 317.562C181.323 318.031 181.154 318.708 180.945 319.594C180.763 320.453 180.555 321.443 180.32 322.562C180.112 323.682 179.878 324.867 179.617 326.117C179.383 327.341 179.161 328.552 178.953 329.75C178.771 330.948 178.602 332.081 178.445 333.148C178.289 334.19 178.198 335.076 178.172 335.805C178.146 336.612 178.146 337.406 178.172 338.188C178.198 338.865 178.237 339.568 178.289 340.297C178.367 341.052 178.497 341.716 178.68 342.289C178.237 342.497 177.846 342.641 177.508 342.719C177.169 342.823 176.896 342.901 176.688 342.953C176.427 343.005 176.206 343.031 176.023 343.031C175.815 343.031 175.568 343.005 175.281 342.953C174.995 342.927 174.734 342.797 174.5 342.562C174.266 342.328 174.07 341.964 173.914 341.469C173.758 340.974 173.706 340.258 173.758 339.32C173.784 338.695 173.888 337.914 174.07 336.977C174.227 336.065 174.422 335.062 174.656 333.969C174.891 332.849 175.151 331.703 175.438 330.531C175.75 329.333 176.049 328.174 176.336 327.055C176.622 325.909 176.883 324.828 177.117 323.812C177.378 322.797 177.599 321.924 177.781 321.195C178.016 320.258 178.276 319.164 178.562 317.914C179.057 315.779 179.799 312.576 180.789 308.305C180.971 308.174 181.167 308.057 181.375 307.953C181.583 307.823 181.766 307.719 181.922 307.641C182.104 307.536 182.286 307.458 182.469 307.406C183.302 307.094 183.888 307.055 184.227 307.289C184.591 307.523 184.799 307.992 184.852 308.695C184.878 309.164 184.93 309.841 185.008 310.727C185.112 311.612 185.203 312.602 185.281 313.695C185.359 314.789 185.424 315.922 185.477 317.094C185.529 318.24 185.555 319.307 185.555 320.297C185.555 320.948 185.568 321.716 185.594 322.602C185.62 323.487 185.659 324.424 185.711 325.414C185.763 326.404 185.828 327.419 185.906 328.461C185.984 329.477 186.076 330.453 186.18 331.391C186.284 332.328 186.388 333.188 186.492 333.969C186.622 334.75 186.753 335.388 186.883 335.883C186.935 336.091 186.987 336.286 187.039 336.469C187.117 336.651 187.182 336.833 187.234 337.016C187.391 336.391 187.56 335.648 187.742 334.789C187.951 333.93 188.159 333.018 188.367 332.055C188.602 331.065 188.823 330.062 189.031 329.047C189.24 328.005 189.422 327.029 189.578 326.117C189.708 325.388 189.852 324.451 190.008 323.305C190.164 322.159 190.346 320.922 190.555 319.594C190.268 319.49 189.995 319.385 189.734 319.281C189.5 319.177 189.266 319.047 189.031 318.891C188.797 318.734 188.602 318.552 188.445 318.344C188.471 318.005 188.497 317.758 188.523 317.602C188.576 317.445 188.706 317.432 188.914 317.562C189.07 317.641 189.305 317.732 189.617 317.836C189.956 317.94 190.346 318.018 190.789 318.07C190.919 317.341 191.062 316.612 191.219 315.883C191.401 315.154 191.583 314.451 191.766 313.773C192.052 312.654 192.378 311.651 192.742 310.766C193.107 309.854 193.523 309.086 193.992 308.461C194.487 307.836 195.06 307.354 195.711 307.016C196.362 306.677 197.117 306.495 197.977 306.469C198.784 306.469 199.435 306.807 199.93 307.484C200.451 308.135 200.672 309.281 200.594 310.922C200.542 312.146 200.281 313.253 199.812 314.242C199.37 315.206 198.823 316.065 198.172 316.82C197.521 317.549 196.805 318.161 196.023 318.656C195.242 319.125 194.5 319.464 193.797 319.672C193.562 320.896 193.341 322.133 193.133 323.383C192.924 324.607 192.716 325.805 192.508 326.977C192.326 328.122 192.13 329.216 191.922 330.258C191.74 331.299 191.557 332.224 191.375 333.031C191.193 333.812 190.997 334.659 190.789 335.57C190.607 336.352 190.385 337.25 190.125 338.266C189.865 339.281 189.591 340.349 189.305 341.469C189.201 341.703 189.07 341.898 188.914 342.055C188.758 342.237 188.602 342.38 188.445 342.484C188.263 342.615 188.081 342.719 187.898 342.797C187.378 343.005 186.935 343.044 186.57 342.914C186.206 342.784 185.88 342.432 185.594 341.859C185.307 341.26 185.047 340.518 184.812 339.633C184.604 338.747 184.383 337.784 184.148 336.742C183.914 335.622 183.732 334.411 183.602 333.109C183.497 331.781 183.406 330.44 183.328 329.086C183.276 327.706 183.237 326.339 183.211 324.984C183.185 323.63 183.133 322.354 183.055 321.156C182.924 319.594 182.794 318.201 182.664 316.977C182.534 315.727 182.391 314.672 182.234 313.812C182.13 314.333 182.013 314.919 181.883 315.57C181.753 316.221 181.609 316.885 181.453 317.562ZM194.578 315.922C194.448 316.417 194.344 316.885 194.266 317.328C194.891 316.964 195.477 316.508 196.023 315.961C196.57 315.388 197.039 314.789 197.43 314.164C197.82 313.539 198.12 312.914 198.328 312.289C198.562 311.664 198.693 311.091 198.719 310.57C198.745 310.206 198.706 309.919 198.602 309.711C198.523 309.477 198.367 309.359 198.133 309.359C198.003 309.359 197.794 309.438 197.508 309.594C197.247 309.724 196.948 310.023 196.609 310.492C196.271 310.935 195.919 311.586 195.555 312.445C195.216 313.305 194.891 314.464 194.578 315.922ZM206.219 341.586C206.323 341.508 206.492 341.378 206.727 341.195C206.935 341.013 207.195 340.674 207.508 340.18C207.794 339.685 208.12 338.969 208.484 338.031C208.849 337.094 209.227 335.818 209.617 334.203C209.826 333.344 210.099 332.25 210.438 330.922C210.776 329.594 211.141 328.174 211.531 326.664C211.948 325.154 212.365 323.604 212.781 322.016C213.198 320.401 213.602 318.878 213.992 317.445C214.383 315.987 214.734 314.672 215.047 313.5C215.359 312.328 215.607 311.417 215.789 310.766C215.294 311.078 214.812 311.43 214.344 311.82C213.927 312.159 213.484 312.549 213.016 312.992C212.547 313.409 212.091 313.852 211.648 314.32C211.31 314.034 211.049 313.721 210.867 313.383C210.763 313.227 210.672 313.057 210.594 312.875C210.438 312.484 210.359 312.081 210.359 311.664C210.359 311.247 210.685 310.818 211.336 310.375C211.674 310.141 212.182 309.802 212.859 309.359C213.562 308.917 214.422 308.487 215.438 308.07C216.453 307.628 217.638 307.25 218.992 306.938C220.346 306.625 221.844 306.469 223.484 306.469C225.125 306.469 226.44 306.794 227.43 307.445C228.445 308.096 229.214 308.891 229.734 309.828C230.281 310.766 230.633 311.755 230.789 312.797C230.945 313.839 230.984 314.75 230.906 315.531C230.75 316.99 230.281 318.513 229.5 320.102C228.719 321.69 227.638 323.161 226.258 324.516C224.878 325.844 223.198 326.977 221.219 327.914C219.24 328.852 216.974 329.385 214.422 329.516C214.214 330.505 214.005 331.521 213.797 332.562C213.589 333.604 213.367 334.633 213.133 335.648C212.898 336.638 212.651 337.562 212.391 338.422C212.156 339.307 211.909 340.062 211.648 340.688C211.388 341.365 211.049 341.898 210.633 342.289C210.216 342.706 209.552 342.914 208.641 342.914C208.172 342.914 207.742 342.797 207.352 342.562C206.935 342.328 206.557 342.003 206.219 341.586ZM215.477 323.773C215.398 324.19 215.294 324.737 215.164 325.414C215.06 326.065 214.93 326.807 214.773 327.641C215.477 327.536 216.258 327.354 217.117 327.094C217.977 326.807 218.836 326.43 219.695 325.961C220.555 325.492 221.388 324.932 222.195 324.281C223.029 323.604 223.784 322.836 224.461 321.977C225.138 321.091 225.698 320.102 226.141 319.008C226.609 317.888 226.909 316.651 227.039 315.297C227.169 313.995 227.091 312.914 226.805 312.055C226.544 311.169 226.154 310.466 225.633 309.945C225.112 309.398 224.513 309.021 223.836 308.812C223.159 308.578 222.482 308.461 221.805 308.461C221.154 308.461 220.516 308.552 219.891 308.734C219.266 308.917 218.641 309.151 218.016 309.438C218.094 309.464 218.185 309.529 218.289 309.633C218.445 309.789 218.562 310.01 218.641 310.297C218.016 312.823 217.495 314.932 217.078 316.625C216.688 318.318 216.375 319.698 216.141 320.766C215.854 322.016 215.633 323.018 215.477 323.773ZM244.656 318.07C244.63 317.992 244.708 317.797 244.891 317.484C245.073 317.146 245.268 316.742 245.477 316.273C245.711 315.779 245.932 315.232 246.141 314.633C246.375 314.008 246.531 313.37 246.609 312.719C246.714 312.068 246.714 311.417 246.609 310.766C246.505 310.115 246.232 309.49 245.789 308.891C245.529 308.578 245.138 308.409 244.617 308.383C244.122 308.331 243.549 308.409 242.898 308.617C242.273 308.799 241.609 309.099 240.906 309.516C240.229 309.906 239.604 310.375 239.031 310.922C238.458 311.443 237.964 312.029 237.547 312.68C237.156 313.331 236.935 313.995 236.883 314.672C236.831 315.219 236.844 315.727 236.922 316.195C237.026 316.664 237.156 317.094 237.312 317.484C237.469 317.875 237.638 318.24 237.82 318.578C238.003 318.917 238.172 319.216 238.328 319.477C238.536 319.841 238.862 320.245 239.305 320.688C239.747 321.13 240.229 321.638 240.75 322.211C241.271 322.758 241.792 323.383 242.312 324.086C242.833 324.789 243.289 325.583 243.68 326.469C244.07 327.354 244.344 328.344 244.5 329.438C244.656 330.531 244.643 331.742 244.461 333.07C244.174 334.997 243.719 336.599 243.094 337.875C242.469 339.177 241.779 340.219 241.023 341C240.294 341.781 239.552 342.341 238.797 342.68C238.042 343.044 237.417 343.279 236.922 343.383C236.531 343.461 236.062 343.526 235.516 343.578C234.995 343.656 234.435 343.643 233.836 343.539C233.263 343.461 232.677 343.279 232.078 342.992C231.479 342.732 230.945 342.315 230.477 341.742C229.93 341.091 229.5 340.388 229.188 339.633C228.901 338.982 228.693 338.227 228.562 337.367C228.406 336.534 228.471 335.661 228.758 334.75C228.966 334.516 229.188 334.307 229.422 334.125C229.656 333.943 229.891 333.786 230.125 333.656C230.385 333.5 230.659 333.357 230.945 333.227C231.284 333.122 231.622 333.031 231.961 332.953C232.247 332.901 232.547 332.875 232.859 332.875C233.198 332.849 233.51 332.888 233.797 332.992C233.406 333.435 233.133 333.852 232.977 334.242C232.872 334.451 232.794 334.633 232.742 334.789C232.638 335.284 232.599 335.87 232.625 336.547C232.677 337.25 232.82 337.914 233.055 338.539C233.315 339.19 233.68 339.737 234.148 340.18C234.617 340.648 235.242 340.896 236.023 340.922C237.924 340.974 239.539 339.49 240.867 336.469C241.31 335.531 241.531 334.581 241.531 333.617C241.557 332.654 241.44 331.729 241.18 330.844C240.945 329.958 240.62 329.138 240.203 328.383C239.812 327.602 239.409 326.938 238.992 326.391C238.576 325.844 238.068 325.258 237.469 324.633C236.896 323.982 236.323 323.279 235.75 322.523C235.177 321.768 234.656 320.948 234.188 320.062C233.745 319.177 233.445 318.214 233.289 317.172C233.081 315.714 233.211 314.385 233.68 313.188C234.174 311.964 234.826 310.896 235.633 309.984C236.466 309.073 237.365 308.331 238.328 307.758C239.318 307.185 240.19 306.82 240.945 306.664C245.138 305.831 247.885 306.534 249.188 308.773C249.734 309.633 250.034 310.544 250.086 311.508C250.138 312.471 250.073 313.37 249.891 314.203C249.734 315.01 249.526 315.701 249.266 316.273C249.031 316.82 248.875 317.12 248.797 317.172C248.641 317.328 248.393 317.497 248.055 317.68C247.716 317.862 247.169 318.031 246.414 318.188C246.206 318.24 245.997 318.266 245.789 318.266C245.607 318.266 245.411 318.253 245.203 318.227C244.995 318.201 244.812 318.148 244.656 318.07Z" fill="black"/>
<defs>
<filter id="filter0_d" x="12.2896" y="7.48926" width="312.421" height="320.021" filterUnits="userSpaceOnUse" color-interpolation-filters="sRGB">
<feFlood flood-opacity="0" result="BackgroundImageFix"/>
<feColorMatrix in="SourceAlpha" type="matrix" values="0 0 0 0 0 0 0 0 0 0 0 0 0 0 0 0 0 0 127 0"/>
<feOffset dy="4"/>
<feGaussianBlur stdDeviation="2"/>
<feColorMatrix type="matrix" values="0 0 0 0 0 0 0 0 0 0 0 0 0 0 0 0 0 0 0.25 0"/>
<feBlend mode="normal" in2="BackgroundImageFix" result="effect1_dropShadow"/>
<feBlend mode="normal" in="SourceGraphic" in2="effect1_dropShadow" result="shape"/>
</filter>
<filter id="filter1_d" x="49.0887" y="33.5776" width="237.14" height="251.912" filterUnits="userSpaceOnUse" color-interpolation-filters="sRGB">
<feFlood flood-opacity="0" result="BackgroundImageFix"/>
<feColorMatrix in="SourceAlpha" type="matrix" values="0 0 0 0 0 0 0 0 0 0 0 0 0 0 0 0 0 0 127 0"/>
<feOffset dy="4"/>
<feGaussianBlur stdDeviation="2"/>
<feColorMatrix type="matrix" values="0 0 0 0 0 0 0 0 0 0 0 0 0 0 0 0 0 0 0.25 0"/>
<feBlend mode="normal" in2="BackgroundImageFix" result="effect1_dropShadow"/>
<feBlend mode="normal" in="SourceGraphic" in2="effect1_dropShadow" result="shape"/>
</filter>
</defs>
</svg>
